<svg width="24" height="25" viewBox="0 0 24 25" fill="none" xmlns="http://www.w3.org/2000/svg">
<path d="M13.121 6.70462C12.9335 6.89215 12.8282 7.14646 12.8282 7.41162C12.8282 7.67679 12.9335 7.93109 13.121 8.11862L16.413 11.4116L6 11.4186C5.73478 11.4186 5.48043 11.524 5.29289 11.7115C5.10536 11.8991 5 12.1534 5 12.4186C5 12.6838 5.10536 12.9382 5.29289 13.1257C5.48043 13.3133 5.73478 13.4186 6 13.4186L16.414 13.4116L13.121 16.7046C13.0255 16.7969 12.9493 16.9072 12.8969 17.0292C12.8445 17.1512 12.8169 17.2824 12.8157 17.4152C12.8146 17.548 12.8399 17.6797 12.8902 17.8026C12.9405 17.9255 13.0147 18.0371 13.1086 18.131C13.2025 18.2249 13.3141 18.2992 13.437 18.3494C13.5599 18.3997 13.6916 18.425 13.8244 18.4239C13.9572 18.4227 14.0884 18.3951 14.2104 18.3427C14.3324 18.2903 14.4428 18.2141 14.535 18.1186L18.121 14.5336C18.3996 14.255 18.6207 13.9243 18.7715 13.5603C18.9222 13.1963 18.9999 12.8061 18.9999 12.4121C18.9999 12.0181 18.9222 11.628 18.7715 11.264C18.6207 10.8999 18.3996 10.5692 18.121 10.2906L14.535 6.70462C14.3475 6.51715 14.0932 6.41183 13.828 6.41183C13.5628 6.41183 13.3085 6.51715 13.121 6.70462Z" fill="white"/>
</svg>
