<svg width="40" height="35" viewBox="0 0 40 35" fill="none" xmlns="http://www.w3.org/2000/svg">
<path d="M6.97072 26.1529L7.40666 27.0091C7.71414 26.905 8.03438 26.8281 8.36191 26.7795L8.15872 25.8674C7.75139 25.9278 7.35314 26.0235 6.97072 26.1529V26.1529Z" fill="url(#paint0_linear_115_3933)"/>
<path d="M3.98587 28.4526L5.0086 28.8565C5.36254 28.2611 5.90096 27.7514 6.5706 27.3778L5.92927 26.6128C5.09611 27.0777 4.42622 27.7118 3.98587 28.4526V28.4526Z" fill="url(#paint1_linear_115_3933)"/>
<path d="M35.2273 28.1917C35.2279 27.3938 34.8672 26.6239 34.2143 26.0295L33.3676 26.6475C33.7035 26.9531 33.9336 27.3262 34.0341 27.7284H30.1136C30.0201 27.7284 29.928 27.7473 29.8456 27.7832C29.7631 27.8192 29.6928 27.8713 29.6409 27.9347L27.5369 30.5083H26.1364V29.1184C26.1376 28.2585 26.557 27.4342 27.3026 26.8262C28.0482 26.2182 29.0592 25.8762 30.1136 25.8752H31.25C31.8087 25.8744 32.3552 26.0087 32.8205 26.261L33.4497 25.4894C32.9591 25.2231 32.4016 25.0496 31.8182 24.9817V23.5587C31.8182 23.4358 31.7583 23.3179 31.6518 23.231C31.5452 23.1442 31.4007 23.0953 31.25 23.0953C30.6474 23.0948 30.0698 22.8994 29.6437 22.5519C29.2176 22.2045 28.978 21.7334 28.9773 21.2421V19.3889H30.6818C30.8325 19.3889 30.977 19.3401 31.0836 19.2532C31.1901 19.1663 31.25 19.0484 31.25 18.9256V15.6824C31.25 15.5595 31.1901 15.4417 31.0836 15.3548C30.977 15.2679 30.8325 15.2191 30.6818 15.2191H29.6797C29.4423 15.2194 29.206 15.2459 28.9773 15.298V14.7558C28.9773 14.6505 28.9334 14.5484 28.8528 14.4662L26.9938 12.5713C27.2373 12.2363 27.3249 11.8411 27.2405 11.4578C27.1561 11.0745 26.9054 10.7288 26.5342 10.4838C26.163 10.2389 25.6961 10.111 25.2188 10.1236C24.7415 10.1362 24.2857 10.2884 23.9347 10.5525C23.5837 10.8165 23.361 11.1747 23.3072 11.5616C23.2534 11.9486 23.3721 12.3384 23.6418 12.6598C23.9114 12.9812 24.3138 13.2128 24.7755 13.3122C25.2372 13.4116 25.7274 13.3722 26.1565 13.2012L27.8409 14.9183V15.5029L25.343 14.824C25.1794 14.778 25.0074 14.7549 24.8343 14.7558H20.1477L17.4503 12.1896C17.676 12.0617 17.8604 11.8913 17.9878 11.6927C18.1151 11.4941 18.1817 11.2734 18.1818 11.0493V10.8723L19.0041 10.5371C19.0762 10.5077 19.1397 10.4662 19.1906 10.4152C19.2415 10.3643 19.2785 10.3051 19.2991 10.2416C19.3198 10.1781 19.3237 10.1117 19.3105 10.0469C19.2973 9.98213 19.2674 9.92035 19.2227 9.86569L18.2895 8.72421C18.4191 8.70382 18.5359 8.64728 18.6199 8.5643C18.704 8.48133 18.75 8.37709 18.75 8.26947C18.749 7.53247 18.3895 6.82589 17.7504 6.30475C17.1113 5.78361 16.2447 5.49047 15.3409 5.48962C14.271 5.48962 13.2802 5.74022 12.5433 6.40419C12.2241 6.69233 11.9822 7.03173 11.8333 7.40059C11.6844 7.76946 11.6318 8.15963 11.6788 8.54607L11.8004 9.53709C11.8515 9.96438 12.102 10.3593 12.5 10.6403V19.3889C12.4997 19.7144 12.6052 20.0341 12.8058 20.3155H11.9318C11.7382 20.3154 11.5461 20.3424 11.3636 20.3952V14.2925C11.3631 13.924 11.1834 13.5707 10.8638 13.3101C10.5443 13.0495 10.111 12.903 9.65909 12.9026H2.84091C2.389 12.903 1.95573 13.0495 1.63618 13.3101C1.31662 13.5707 1.13688 13.924 1.13637 14.2925V16.609H2.27273V15.6824H10.2273V20.3155H2.27273V17.5356H1.13637V21.3187C1.13624 21.5358 1.2296 21.7459 1.40014 21.9126C1.57068 22.0792 1.80758 22.1917 2.06946 22.2304L7.38637 23.0187V24.1059C6.90465 24.1969 6.43424 24.3239 5.98111 24.4853H2.84091C2.69022 24.4853 2.5457 24.5341 2.43915 24.621C2.33259 24.7079 2.27273 24.8257 2.27273 24.9486V27.1477C1.53034 28.1642 1.13778 29.3251 1.13637 30.5083C1.13637 30.6312 1.19623 30.749 1.30278 30.8359C1.40934 30.9228 1.55386 30.9716 1.70455 30.9716H4.30902C4.64858 31.656 5.23105 32.2421 5.98179 32.6548C6.73253 33.0676 7.61731 33.288 8.52273 33.288C9.42815 33.288 10.3129 33.0676 11.0637 32.6548C11.8144 32.2421 12.3969 31.656 12.7364 30.9716H22.2898C22.6856 30.9714 23.077 30.9039 23.439 30.7734C23.801 30.6428 24.1256 30.4521 24.392 30.2135L25 29.668V30.9716C25 31.0945 25.0599 31.2123 25.1664 31.2992C25.273 31.3861 25.4175 31.4349 25.5682 31.4349H26.7455C27.2458 32.1415 28.018 32.6937 28.9425 33.0059C29.8669 33.3181 30.8918 33.3728 31.8583 33.1617C32.8248 32.9505 33.6788 32.4852 34.2879 31.8379C34.897 31.1906 35.2272 30.3975 35.2273 29.5817C35.2277 29.2268 35.1654 28.8738 35.0422 28.5334C35.1005 28.4901 35.1471 28.4374 35.179 28.3785C35.2109 28.3197 35.2273 28.2561 35.2273 28.1917ZM24.4318 11.7443C24.4318 11.6068 24.4818 11.4725 24.5755 11.3582C24.6691 11.2439 24.8022 11.1548 24.9579 11.1022C25.1137 11.0496 25.285 11.0359 25.4504 11.0627C25.6157 11.0895 25.7675 11.1557 25.8867 11.2529C26.0059 11.3501 26.0871 11.4739 26.12 11.6087C26.1529 11.7435 26.136 11.8832 26.0715 12.0102C26.007 12.1372 25.8977 12.2458 25.7576 12.3221C25.6174 12.3985 25.4527 12.4392 25.2841 12.4392C25.0581 12.4391 24.8415 12.3658 24.6817 12.2355C24.5219 12.1052 24.4321 11.9285 24.4318 11.7443V11.7443ZM16.3033 28.1917C15.7468 28.1912 15.2134 28.0107 14.8199 27.6899C14.4265 27.3691 14.2052 26.9341 14.2045 26.4803C14.2045 26.0255 14.3456 25.6 14.7173 25.2501C15.0486 24.939 15.5061 24.7355 16.0062 24.6767C16.6099 24.6065 17.1622 24.361 17.5619 23.9854C17.9615 23.6098 18.1816 23.1293 18.1818 22.632C18.1819 22.5712 18.1673 22.5109 18.1387 22.4546C18.1101 22.3984 18.0682 22.3473 18.0153 22.3043C18.1118 22.1396 18.1676 21.9611 18.1794 21.7788C18.1913 21.5965 18.1589 21.4141 18.0841 21.2421H19.6273L17.134 26.5281C17.0737 26.6554 17.0436 26.7909 17.0455 26.9273V28.1917H16.3033ZM18.1818 27.2651H21.0227C21.1446 27.2652 21.2632 27.2972 21.361 27.3565C21.4588 27.4157 21.5307 27.499 21.566 27.5941C21.6013 27.6892 21.5982 27.7911 21.5571 27.8846C21.5161 27.9782 21.4392 28.0585 21.3379 28.1137C21.195 28.1647 21.0409 28.1913 20.8849 28.1917H18.1818V27.2651ZM22.5911 27.184C22.478 26.9685 22.3002 26.7796 22.0739 26.635C21.8476 26.4903 21.5803 26.3945 21.2966 26.3565L23.6496 21.7371C23.8588 21.3265 23.9404 20.8803 23.8873 20.4378C23.8343 19.9954 23.6482 19.5705 23.3455 19.2007C23.0428 18.831 22.6329 18.5279 22.1522 18.3182C21.6714 18.1086 21.1347 17.9989 20.5895 17.9989H18.1818V17.2643L18.3482 17.3999C18.401 17.443 18.4636 17.4771 18.5326 17.5004C18.6015 17.5237 18.6754 17.5356 18.75 17.5356H24.5295C24.4385 17.7453 24.4105 17.9697 24.4479 18.1899C24.4853 18.4102 24.587 18.62 24.7444 18.8015C24.9019 18.9831 25.1105 19.1312 25.3527 19.2334C25.5949 19.3356 25.8636 19.3889 26.1364 19.3889H26.1379C25.7676 19.7893 25.5675 20.2773 25.5682 20.7788V24.3729C25.5673 24.6185 25.4477 24.8539 25.2353 25.0281L22.5911 27.184ZM26.1364 18.4623C26.024 18.4623 25.9141 18.4351 25.8207 18.3842C25.7273 18.3333 25.6544 18.2609 25.6114 18.1762C25.5684 18.0916 25.5572 17.9984 25.5791 17.9086C25.601 17.8187 25.6551 17.7361 25.7346 17.6713C25.8141 17.6065 25.9153 17.5624 26.0255 17.5445C26.1357 17.5267 26.25 17.5358 26.3538 17.5709C26.4576 17.606 26.5464 17.6654 26.6088 17.7415C26.6712 17.8177 26.7045 17.9073 26.7045 17.9989C26.7044 18.1218 26.6445 18.2395 26.5379 18.3264C26.4314 18.4133 26.287 18.4621 26.1364 18.4623V18.4623ZM30.1136 16.1457V18.4623H28.9773V16.29C29.1934 16.1956 29.4346 16.1461 29.6797 16.1457H30.1136ZM27.8409 17.9989C27.841 17.7766 27.7756 17.5574 27.6503 17.3599C27.525 17.1624 27.3433 16.9923 27.1206 16.8639C26.8979 16.7356 26.6407 16.6526 26.3706 16.6222C26.1004 16.5917 25.8253 16.6145 25.5682 16.6887V15.8619L27.8409 16.4796V17.9989ZM19.8864 15.6824H24.4318V16.609H18.9854L15.7427 13.9649L14.9391 14.6201L17.0455 16.3376V17.9989H13.6364V12.4392H16.2159L19.455 15.5207C19.5083 15.5714 19.5745 15.6121 19.649 15.64C19.7234 15.668 19.8044 15.6824 19.8864 15.6824V15.6824ZM13.3859 7.02595C13.9053 6.55796 14.5945 6.41624 15.3409 6.41624C15.8446 6.41676 16.3339 6.55348 16.7322 6.80499C17.1304 7.0565 17.4151 7.4086 17.5418 7.80617H15.3409C15.1902 7.80617 15.0457 7.85498 14.9391 7.94187C14.8326 8.02875 14.7727 8.1466 14.7727 8.26947V9.36983C14.7719 9.56251 14.6805 9.7476 14.5173 9.88698C14.3542 10.0264 14.1317 10.1094 13.8957 10.1191C13.6597 10.1287 13.4281 10.0642 13.2487 9.93884C13.0692 9.81347 12.9556 9.63677 12.9311 9.44512L12.8095 8.4541C12.7762 8.19635 12.8104 7.93578 12.9097 7.68959C13.0091 7.4434 13.1714 7.21721 13.3859 7.02595V7.02595ZM13.8494 11.0493C14.3955 11.0489 14.9191 10.8718 15.3052 10.5569C15.6913 10.242 15.9085 9.81512 15.9091 9.36983V8.73278H17.0455C17.0454 8.82427 17.0786 8.9137 17.1409 8.9898L17.9202 9.94318L17.3592 10.1718C17.2649 10.2103 17.1856 10.2695 17.1302 10.3426C17.0748 10.4158 17.0455 10.5 17.0455 10.586V11.0493C17.0453 11.1722 16.9854 11.2899 16.8789 11.3768C16.7723 11.4636 16.6279 11.5125 16.4773 11.5126H13.6364V11.0402C13.7072 11.0462 13.7783 11.0492 13.8494 11.0493ZM13.6364 19.3889V18.9256H20.5895C20.9477 18.9256 21.3004 18.9977 21.6163 19.1354C21.9321 19.2732 22.2014 19.4724 22.4003 19.7153C22.5992 19.9583 22.7215 20.2375 22.7563 20.5282C22.7911 20.8189 22.7375 21.1122 22.6001 21.3819L20.0753 26.3385H18.4409L20.9849 20.9451C21.018 20.8749 21.0296 20.7993 21.0188 20.7246C21.0081 20.6499 20.9751 20.5785 20.9229 20.5165C20.8707 20.4545 20.8008 20.4038 20.7192 20.3688C20.6376 20.3338 20.5468 20.3155 20.4545 20.3155H14.7727C14.4715 20.3152 14.1826 20.2175 13.9696 20.0438C13.7566 19.8701 13.6367 19.6345 13.6364 19.3889ZM11.9318 21.2421H16.4773C16.628 21.2421 16.7725 21.2909 16.879 21.3778C16.9856 21.4647 17.0455 21.5825 17.0455 21.7054C17.0455 21.8283 16.9856 21.9461 16.879 22.033C16.7725 22.1199 16.628 22.1687 16.4773 22.1687H11.9318C11.7811 22.1687 11.6366 22.1199 11.5301 22.033C11.4235 21.9461 11.3636 21.8283 11.3636 21.7054C11.3636 21.5825 11.4235 21.4647 11.5301 21.3778C11.6366 21.2909 11.7811 21.2421 11.9318 21.2421ZM2.27273 14.7558V14.2925C2.2729 14.1696 2.33282 14.0519 2.43933 13.965C2.54585 13.8782 2.69027 13.8293 2.84091 13.8292H9.65909C9.80973 13.8293 9.95415 13.8782 10.0607 13.965C10.1672 14.0519 10.2271 14.1696 10.2273 14.2925V14.7558H2.27273ZM2.27273 21.2421H10.2273V22.1687H8.00576L2.27273 21.3187V21.2421ZM4.11151 25.4119C3.86488 25.5752 3.63033 25.7502 3.40909 25.9361V25.4119H4.11151ZM8.52273 32.3615C7.92495 32.3593 7.33823 32.23 6.82057 31.9862C6.30291 31.7424 5.87225 31.3927 5.57117 30.9716H7.02088C7.43551 31.2701 7.96959 31.4349 8.52273 31.4349C9.07587 31.4349 9.60995 31.2701 10.0246 30.9716H11.4743C11.1732 31.3927 10.7426 31.7424 10.2249 31.9862C9.70723 32.23 9.12051 32.3593 8.52273 32.3615V32.3615ZM23.5511 29.5903C23.3912 29.7335 23.1965 29.8479 22.9793 29.9261C22.7621 30.0044 22.5272 30.0449 22.2898 30.045H2.29624C2.41843 28.8354 3.01561 27.6902 3.99914 26.7793C4.98268 25.8683 6.30017 25.2402 7.75611 24.9882C7.90298 24.9621 8.05283 24.9489 8.20313 24.9486H11.9318V24.022H8.52273V23.0953H16.9247C16.8284 23.2715 16.6789 23.4249 16.4901 23.5411C16.3013 23.6573 16.0794 23.7325 15.8452 23.7597C15.0744 23.8501 14.3693 24.1637 13.8587 24.643C13.3089 25.1593 13.0682 25.8051 13.0682 26.4804C13.0677 27.1082 13.343 27.7153 13.8443 28.1917H9.09091V29.1184H20.8849C21.4868 29.1147 22.0633 28.92 22.492 28.5755L26.0389 25.6833C26.4636 25.335 26.7028 24.8641 26.7045 24.3729V20.7788C26.705 20.4914 26.8144 20.2112 27.0179 19.9766C27.2213 19.742 27.5088 19.5644 27.8409 19.4683V21.2421C27.8419 21.8988 28.1276 22.5341 28.6475 23.0358C29.1673 23.5374 29.8879 23.873 30.6818 23.9833V24.9486C30.329 24.9486 29.9681 24.9312 29.6174 24.9686C28.5545 25.0545 27.5511 25.4092 26.7475 25.9829C25.9439 26.5566 25.3803 27.3208 25.1354 28.1686L23.5511 29.5903ZM30.4177 28.655H30.4465L31.1323 29.2143C31.2515 29.3119 31.3186 29.4439 31.3189 29.5817C31.3189 29.6844 31.2815 29.7849 31.2115 29.8703C31.1415 29.9557 31.042 30.0223 30.9256 30.0616C30.8092 30.1009 30.6811 30.1112 30.5575 30.0912C30.4339 30.0711 30.3204 30.0217 30.2313 29.949L29.7084 29.5226L30.4177 28.655ZM30.6818 32.3615C30.1895 32.3602 29.7033 32.2725 29.2563 32.1043C28.8092 31.9361 28.4119 31.6913 28.0913 31.3867C28.1812 31.3509 28.2579 31.2964 28.3136 31.2286L28.8063 30.6263C29.0798 30.9535 29.4748 31.2005 29.9332 31.3313C30.3916 31.462 30.8893 31.4695 31.3533 31.3526C31.8173 31.2358 32.2232 31.0007 32.5113 30.682C32.7995 30.3633 32.9549 29.9776 32.9545 29.5817C32.9554 29.3071 32.8804 29.0359 32.7352 28.7882C32.7087 28.7427 32.6795 28.6985 32.6487 28.655H33.8967C34.0781 29.0744 34.1335 29.5231 34.0584 29.9635C33.9832 30.4039 33.7797 30.8232 33.4648 31.1862C33.1499 31.5493 32.7329 31.8455 32.2486 32.0499C31.7644 32.2544 31.2271 32.3613 30.6818 32.3615V32.3615Z" fill="url(#paint2_linear_115_3933)"/>
<path d="M4.54545 16.6085H3.40909V19.3884H4.54545V16.6085Z" fill="url(#paint3_linear_115_3933)"/>
<ellipse opacity="0.15" cx="24.8485" cy="13.1805" rx="15.1515" ry="12.5717" fill="url(#paint4_linear_115_3933)"/>
<defs>
<linearGradient id="paint0_linear_115_3933" x1="6.97072" y1="26.4002" x2="8.32856" y2="26.4076" gradientUnits="userSpaceOnUse">
<stop stop-color="#47C2FF"/>
<stop offset="1" stop-color="#1CB4FF" stop-opacity="0.71"/>
</linearGradient>
<linearGradient id="paint1_linear_115_3933" x1="3.98587" y1="27.6598" x2="6.50864" y2="27.6728" gradientUnits="userSpaceOnUse">
<stop stop-color="#47C2FF"/>
<stop offset="1" stop-color="#1CB4FF" stop-opacity="0.71"/>
</linearGradient>
<linearGradient id="paint2_linear_115_3933" x1="1.13637" y1="18.4622" x2="34.4099" y2="18.6443" gradientUnits="userSpaceOnUse">
<stop stop-color="#47C2FF"/>
<stop offset="1" stop-color="#1CB4FF" stop-opacity="0.71"/>
</linearGradient>
<linearGradient id="paint3_linear_115_3933" x1="3.40909" y1="17.9058" x2="4.51823" y2="17.9078" gradientUnits="userSpaceOnUse">
<stop stop-color="#47C2FF"/>
<stop offset="1" stop-color="#1CB4FF" stop-opacity="0.71"/>
</linearGradient>
<linearGradient id="paint4_linear_115_3933" x1="9.69698" y1="12.3424" x2="39.2735" y2="12.5015" gradientUnits="userSpaceOnUse">
<stop stop-color="#47C2FF"/>
<stop offset="1" stop-color="#63CBFE"/>
</linearGradient>
</defs>
</svg>
