<svg width="40" height="38" viewBox="0 0 40 38" fill="none" xmlns="http://www.w3.org/2000/svg">
<path d="M31.2193 32.4017H27.6368V23.6129C27.9533 23.5573 28.2518 23.4434 28.5116 23.2792C28.7715 23.115 28.9863 22.9044 29.1413 22.662C29.2963 22.4197 29.3877 22.1514 29.4092 21.8758C29.4306 21.6002 29.3816 21.3239 29.2656 21.0661L27.6368 17.4452V10.5267C27.6368 10.4693 27.6236 10.4124 27.5979 10.3593C27.5722 10.3062 27.5345 10.258 27.4869 10.2173C27.4394 10.1767 27.383 10.1445 27.3209 10.1225C27.2588 10.1005 27.1922 10.0892 27.125 10.0892H5.62972C5.56251 10.0892 5.49595 10.1005 5.43385 10.1225C5.37175 10.1445 5.31532 10.1767 5.26779 10.2173C5.22026 10.258 5.18256 10.3062 5.15685 10.3593C5.13114 10.4124 5.11791 10.4693 5.11793 10.5267V17.4452L3.48915 21.0661C3.37309 21.3239 3.32408 21.6002 3.34554 21.8758C3.36699 22.1514 3.45839 22.4197 3.61339 22.662C3.76839 22.9044 3.98326 23.115 4.24308 23.2792C4.5029 23.4434 4.80143 23.5573 5.11793 23.6129V32.4017H1.53538C1.46817 32.4017 1.40161 32.413 1.33951 32.435C1.27741 32.457 1.22098 32.4892 1.17345 32.5298C1.12592 32.5705 1.08823 32.6187 1.06251 32.6718C1.0368 32.7249 1.02357 32.7818 1.02359 32.8392V35.9017C1.02357 35.9592 1.0368 36.0161 1.06251 36.0692C1.08823 36.1223 1.12592 36.1705 1.17345 36.2111C1.22098 36.2518 1.27741 36.284 1.33951 36.306C1.40161 36.3279 1.46817 36.3392 1.53538 36.3392H31.2193C31.2866 36.3392 31.3531 36.3279 31.4152 36.306C31.4773 36.284 31.5337 36.2518 31.5813 36.2111C31.6288 36.1705 31.6665 36.1223 31.6922 36.0692C31.7179 36.0161 31.7312 35.9592 31.7311 35.9017V32.8392C31.7312 32.7818 31.7179 32.7249 31.6922 32.6718C31.6665 32.6187 31.6288 32.5705 31.5813 32.5298C31.5337 32.4892 31.4773 32.457 31.4152 32.435C31.3531 32.413 31.2866 32.4017 31.2193 32.4017V32.4017ZM25.5896 32.4017V23.0704C25.8697 23.3186 26.2236 23.4969 26.6132 23.5861V32.4017H25.5896ZM21.4953 32.8392V35.4642H19.4481V32.4017H20.4717C20.6074 32.4017 20.7376 32.3556 20.8336 32.2736C20.9296 32.1915 20.9835 32.0803 20.9835 31.9642V30.6517C20.9835 30.5357 20.9296 30.4244 20.8336 30.3424C20.7376 30.2603 20.6074 30.2142 20.4717 30.2142H17.4009C17.2652 30.2142 17.135 30.2603 17.0391 30.3424C16.9431 30.4244 16.8892 30.5357 16.8892 30.6517V31.9642C16.8892 32.0803 16.9431 32.1915 17.0391 32.2736C17.135 32.3556 17.2652 32.4017 17.4009 32.4017H18.4245V35.4642H16.3774V32.8392C16.3774 32.7818 16.3642 32.7249 16.3384 32.6718C16.3127 32.6187 16.275 32.5705 16.2275 32.5298C16.18 32.4892 16.1235 32.457 16.0614 32.435C15.9993 32.413 15.9328 32.4017 15.8656 32.4017H14.842V31.0892C14.842 31.0318 14.8288 30.9749 14.8031 30.9218C14.7774 30.8687 14.7397 30.8205 14.6921 30.7798C14.6446 30.7392 14.5882 30.707 14.5261 30.685C14.464 30.663 14.3974 30.6517 14.3302 30.6517H13.3066V23.6118C13.8027 23.524 14.2489 23.294 14.5714 22.9599C14.6027 22.9933 14.636 23.0256 14.6712 23.0573C14.8784 23.2459 15.1288 23.396 15.4068 23.4983C15.6848 23.6006 15.9845 23.6528 16.2872 23.6517H16.4676C16.7702 23.6528 17.0699 23.6006 17.3479 23.4983C17.626 23.396 17.8764 23.2459 18.0835 23.0573C18.1187 23.0256 18.152 22.9933 18.1833 22.9599C18.2573 23.0361 18.3379 23.1073 18.4245 23.1728V24.5267C17.7461 24.5273 17.0956 24.758 16.6158 25.1681C16.1361 25.5782 15.8662 26.1343 15.8656 26.7142C15.8656 26.7717 15.8788 26.8286 15.9045 26.8817C15.9302 26.9348 15.9679 26.983 16.0154 27.0236C16.063 27.0643 16.1194 27.0965 16.1815 27.1185C16.2436 27.1404 16.3101 27.1517 16.3774 27.1517H21.4953C21.5625 27.1517 21.6291 27.1404 21.6912 27.1185C21.7533 27.0965 21.8097 27.0643 21.8572 27.0236C21.9047 26.983 21.9424 26.9348 21.9682 26.8817C21.9939 26.8286 22.0071 26.7717 22.0071 26.7142C22.0064 26.1343 21.7366 25.5782 21.2568 25.1681C20.7771 24.758 20.1266 24.5273 19.4481 24.5267V23.6118C19.5969 23.6385 19.7484 23.6518 19.9004 23.6517H20.0604C20.3833 23.6519 20.7025 23.592 20.9956 23.476C21.2887 23.36 21.5488 23.1908 21.7576 22.9802C21.771 22.967 21.7838 22.9534 21.796 22.9397C22.0044 23.1626 22.269 23.3424 22.5701 23.4657C22.8712 23.589 23.2009 23.6526 23.5348 23.6517H23.6339C23.9556 23.6522 24.2735 23.5933 24.566 23.4789V30.6517H23.5425C23.4752 30.6517 23.4087 30.663 23.3466 30.685C23.2845 30.707 23.2281 30.7392 23.1805 30.7798C23.133 30.8205 23.0953 30.8687 23.0696 30.9218C23.0439 30.9749 23.0306 31.0318 23.0307 31.0892V32.4017H22.0071C21.9399 32.4017 21.8733 32.413 21.8112 32.435C21.7491 32.457 21.6927 32.4892 21.6451 32.5298C21.5976 32.5705 21.5599 32.6187 21.5342 32.6718C21.5085 32.7249 21.4953 32.7818 21.4953 32.8392V32.8392ZM17.9127 31.5267V31.0892H19.9599V31.5267H17.9127ZM7.96093 21.479L9.09072 17.9642H11.168L10.406 21.9165C10.3604 22.1571 10.2159 22.3759 9.99852 22.5335C9.78111 22.6912 9.50505 22.7775 9.21995 22.7767H9.12079C8.936 22.7767 8.75371 22.7402 8.58808 22.6702C8.42245 22.6001 8.27793 22.4984 8.16574 22.3729C8.05355 22.2473 7.97672 22.1014 7.9412 21.9464C7.90568 21.7914 7.91243 21.6314 7.96093 21.479V21.479ZM8.18868 23.4789C8.48118 23.5933 8.79915 23.6522 9.12079 23.6517H9.21995C9.55378 23.6526 9.88354 23.589 10.1846 23.4657C10.4857 23.3424 10.7503 23.1626 10.9588 22.9397C10.9709 22.9534 10.9837 22.967 10.9971 22.9802C11.3272 23.3131 11.7813 23.5386 12.283 23.6189V25.8392H8.18868V23.4789ZM12.6944 22.7767C12.5199 22.7768 12.3476 22.7444 12.1892 22.6818C12.0309 22.6192 11.8904 22.5278 11.7776 22.4141C11.6647 22.3004 11.5822 22.167 11.5357 22.0233C11.4892 21.8796 11.4798 21.7289 11.5083 21.5818L12.2056 17.9642H14.3014L14.0545 21.8055C14.0376 22.0679 13.9038 22.3147 13.6806 22.4954C13.4574 22.676 13.1617 22.7767 12.8543 22.7767H12.6944ZM17.3402 22.4557C17.2282 22.5575 17.093 22.6385 16.9429 22.6938C16.7928 22.749 16.631 22.7772 16.4676 22.7767H16.2872C16.124 22.7767 15.9626 22.7483 15.8128 22.6933C15.6629 22.6382 15.5277 22.5577 15.4154 22.4565C15.3032 22.3554 15.2161 22.2357 15.1597 22.1049C15.1032 21.9741 15.0785 21.8348 15.087 21.6956L15.3263 17.9642H17.4285L17.6677 21.6928V21.6956C17.6771 21.8347 17.6528 21.974 17.5965 22.1048C17.5401 22.2355 17.4529 22.355 17.3402 22.4557ZM18.7003 21.8055L18.4533 17.9642H20.5491L21.2464 21.5818C21.2749 21.7289 21.2656 21.8796 21.2191 22.0233C21.1726 22.167 21.09 22.3004 20.9772 22.4141C20.8643 22.5278 20.7238 22.6192 20.5655 22.6818C20.4072 22.7444 20.2348 22.7768 20.0604 22.7767H19.9004C19.593 22.7767 19.2973 22.676 19.0741 22.4954C18.8509 22.3147 18.7171 22.0679 18.7003 21.8055V21.8055ZM19.4481 25.4017C19.7656 25.4021 20.0751 25.4863 20.3343 25.643C20.5935 25.7996 20.7896 26.021 20.8959 26.2767H16.9768C17.083 26.021 17.2792 25.7996 17.5384 25.643C17.7975 25.4863 18.1071 25.4021 18.4245 25.4017H19.4481ZM24.5897 22.3721C24.4781 22.4983 24.3336 22.6006 24.1677 22.6708C24.0018 22.741 23.8191 22.7773 23.6339 22.7767H23.5348C23.2497 22.7775 22.9736 22.6912 22.7562 22.5335C22.5388 22.3759 22.3943 22.1571 22.3487 21.9165L21.5868 17.9642H23.664L24.7931 21.4768C24.7931 21.4774 24.7938 21.4785 24.7938 21.479C24.8429 21.6312 24.85 21.7911 24.8146 21.946C24.7792 22.101 24.7022 22.2468 24.5897 22.3721V22.3721ZM24.0542 31.5267H24.566V32.4017H24.0542V31.5267ZM28.3104 21.38C28.3805 21.5357 28.4052 21.7036 28.3824 21.8693C28.3596 22.0349 28.2899 22.1933 28.1794 22.3308C28.069 22.4683 27.921 22.5808 27.7483 22.6585C27.5757 22.7362 27.3835 22.7768 27.1883 22.7767C26.9252 22.7762 26.6694 22.7021 26.4601 22.5658C26.2508 22.4294 26.0995 22.2383 26.0291 22.0215L24.7253 17.9642H26.7738L28.3104 21.38ZM6.14151 10.9642H26.6132V17.0892H6.14151V10.9642ZM4.57543 22.331C4.46359 22.194 4.3931 22.0355 4.37022 21.8696C4.34734 21.7037 4.37278 21.5355 4.44428 21.38L5.98094 17.9642H8.02939L6.7256 22.0215C6.65526 22.2383 6.50389 22.4294 6.29459 22.5658C6.08529 22.7021 5.82955 22.7762 5.56639 22.7767C5.37105 22.778 5.17838 22.7379 5.0055 22.6602C4.83263 22.5824 4.68489 22.4693 4.57543 22.331V22.331ZM6.14151 23.5861C6.53116 23.4969 6.88502 23.3186 7.1651 23.0704V32.4017H6.14151V23.5861ZM10.2359 35.4642H2.04717V33.2767H10.2359V35.4642ZM10.7476 32.4017H8.18868V26.7142H12.283V35.4642H11.2594V32.8392C11.2595 32.7818 11.2462 32.7249 11.2205 32.6718C11.1948 32.6187 11.1571 32.5705 11.1096 32.5298C11.062 32.4892 11.0056 32.457 10.9435 32.435C10.8814 32.413 10.8149 32.4017 10.7476 32.4017V32.4017ZM13.3066 31.5267H13.8184V32.8392C13.8184 32.8967 13.8316 32.9536 13.8573 33.0067C13.883 33.0598 13.9207 33.108 13.9683 33.1486C14.0158 33.1893 14.0722 33.2215 14.1343 33.2435C14.1964 33.2654 14.263 33.2767 14.3302 33.2767H15.3538V35.4642H13.3066V31.5267ZM30.7076 35.4642H22.5189V33.2767H30.7076V35.4642Z" fill="url(#paint0_linear_115_3944)"/>
<path d="M19.9599 14.4642H19.4046C19.2974 13.9273 18.9978 13.4321 18.5472 13.0469C18.0966 12.6617 17.5173 12.4056 16.8892 12.3139V11.8392C16.8892 11.7232 16.8352 11.6119 16.7393 11.5299C16.6433 11.4478 16.5131 11.4017 16.3774 11.4017C16.2416 11.4017 16.1114 11.4478 16.0155 11.5299C15.9195 11.6119 15.8656 11.7232 15.8656 11.8392V12.3139C15.2374 12.4056 14.6581 12.6617 14.2075 13.0469C13.757 13.4321 13.4574 13.9273 13.3501 14.4642H12.7948C12.6591 14.4642 12.5289 14.5103 12.4329 14.5924C12.3369 14.6744 12.283 14.7857 12.283 14.9017C12.2836 15.3657 12.4995 15.8105 12.8833 16.1386C13.2671 16.4667 13.7874 16.6512 14.3302 16.6517H18.4245C18.9673 16.6512 19.4876 16.4667 19.8714 16.1386C20.2552 15.8105 20.4711 15.3657 20.4717 14.9017C20.4717 14.7857 20.4178 14.6744 20.3218 14.5924C20.2258 14.5103 20.0956 14.4642 19.9599 14.4642V14.4642ZM16.3774 13.1517C16.8311 13.1522 17.2718 13.2813 17.6305 13.5188C17.9893 13.7563 18.2457 14.0888 18.3598 14.4642H14.3949C14.509 14.0888 14.7655 13.7563 15.1242 13.5188C15.4829 13.2813 15.9236 13.1522 16.3774 13.1517V13.1517ZM18.4245 15.7767H14.3302C14.1506 15.7767 13.9741 15.7362 13.8186 15.6594C13.663 15.5826 13.5338 15.4722 13.444 15.3392H19.3107C19.2209 15.4722 19.0917 15.5826 18.9361 15.6594C18.7806 15.7362 18.6042 15.7767 18.4245 15.7767Z" fill="url(#paint1_linear_115_3944)"/>
<path d="M12.5669 13.5157C12.637 13.4758 12.6945 13.4217 12.7343 13.3582C12.774 13.2947 12.7948 13.2238 12.7948 13.1517V11.8392H11.7712V12.9019C11.6088 12.9727 11.437 13.0265 11.2594 13.0619V11.8392H10.2358V13.0619C10.0583 13.0265 9.88645 12.9727 9.72405 12.9019V11.8392H8.70047V13.1517C8.70047 13.2238 8.72127 13.2947 8.76103 13.3582C8.80079 13.4217 8.85827 13.4758 8.92838 13.5157C9.32216 13.7405 9.7682 13.8898 10.2358 13.9532V16.6517H11.2594V13.9532C11.7271 13.8898 12.1731 13.7405 12.5669 13.5157V13.5157Z" fill="url(#paint2_linear_115_3944)"/>
<path d="M22.0069 11.4017C21.5087 11.4018 21.0275 11.5571 20.6536 11.8387C20.2798 12.1203 20.0389 12.5088 19.9761 12.9313C19.9133 13.3539 20.0329 13.7815 20.3126 14.134C20.5922 14.4866 21.0127 14.7398 21.4951 14.8464V16.6517H22.5187V14.8464C23.0012 14.7398 23.4216 14.4866 23.7013 14.134C23.9809 13.7815 24.1006 13.3539 24.0378 12.9313C23.975 12.5088 23.7341 12.1203 23.3603 11.8387C22.9864 11.5571 22.5052 11.4018 22.0069 11.4017V11.4017ZM22.0069 14.0267C21.8045 14.0267 21.6066 13.9754 21.4383 13.8793C21.2699 13.7831 21.1387 13.6465 21.0613 13.4866C20.9838 13.3267 20.9635 13.1508 21.003 12.981C21.0425 12.8113 21.14 12.6554 21.2832 12.533C21.4263 12.4106 21.6087 12.3273 21.8072 12.2935C22.0058 12.2598 22.2116 12.2771 22.3986 12.3433C22.5857 12.4096 22.7455 12.5217 22.858 12.6656C22.9705 12.8095 23.0305 12.9787 23.0305 13.1517C23.0302 13.3837 22.9223 13.6061 22.7304 13.7702C22.5385 13.9342 22.2783 14.0265 22.0069 14.0267V14.0267Z" fill="url(#paint3_linear_115_3944)"/>
<ellipse opacity="0.15" cx="25.8491" cy="12.7142" rx="14.1509" ry="12.5" fill="url(#paint4_linear_115_3944)"/>
<defs>
<linearGradient id="paint0_linear_115_3944" x1="1.02359" y1="22.3392" x2="30.9949" y2="22.4957" gradientUnits="userSpaceOnUse">
<stop stop-color="#FF5050"/>
<stop offset="1" stop-color="#FF7070" stop-opacity="0.84"/>
</linearGradient>
<linearGradient id="paint1_linear_115_3944" x1="12.283" y1="13.8517" x2="20.2752" y2="13.9074" gradientUnits="userSpaceOnUse">
<stop stop-color="#FF5050"/>
<stop offset="1" stop-color="#FF7070" stop-opacity="0.84"/>
</linearGradient>
<linearGradient id="paint2_linear_115_3944" x1="8.70047" y1="14.0851" x2="12.6967" y2="14.1002" gradientUnits="userSpaceOnUse">
<stop stop-color="#FF5050"/>
<stop offset="1" stop-color="#FF7070" stop-opacity="0.84"/>
</linearGradient>
<linearGradient id="paint3_linear_115_3944" x1="19.9598" y1="13.8517" x2="23.956" y2="13.8656" gradientUnits="userSpaceOnUse">
<stop stop-color="#FF5050"/>
<stop offset="1" stop-color="#FF7070" stop-opacity="0.84"/>
</linearGradient>
<linearGradient id="paint4_linear_115_3944" x1="11.6981" y1="11.8809" x2="39.3215" y2="12.0204" gradientUnits="userSpaceOnUse">
<stop stop-color="#FF7070"/>
<stop offset="1" stop-color="#FF7070" stop-opacity="0.65"/>
</linearGradient>
</defs>
</svg>
