<svg width="23" height="20" viewBox="0 0 23 20" fill="none" xmlns="http://www.w3.org/2000/svg">
<path d="M12.1651 2.72233L14.2524 6.40761C14.4062 6.67461 14.6997 6.86002 15.0382 6.90123L19.7267 7.50116C20.0005 7.53494 20.249 7.66185 20.4169 7.85551C20.5828 8.0467 20.6541 8.28898 20.6138 8.52713C20.581 8.72491 20.475 8.90786 20.3128 9.04795L16.9155 11.9413C16.667 12.1432 16.5545 12.4423 16.6145 12.7349L17.4509 16.8025C17.54 17.2937 17.1696 17.7568 16.6145 17.8499C16.3857 17.8821 16.1513 17.8483 15.945 17.756L11.7628 15.8417C11.4524 15.704 11.0858 15.704 10.7754 15.8417L6.59328 17.756C6.07942 17.9958 5.44272 17.8326 5.15672 17.3876C5.05076 17.2104 5.01325 17.0085 5.04795 16.8116L5.88438 12.7431C5.94439 12.4514 5.83093 12.1506 5.58337 11.9487L2.18608 9.05702C1.78193 8.7142 1.76974 8.14971 2.15889 7.79453C2.16733 7.78711 2.17671 7.77887 2.18608 7.77063C2.34737 7.62642 2.55929 7.53494 2.78809 7.51105L7.47659 6.91029C7.81417 6.86826 8.10767 6.6845 8.26239 6.41585L10.2747 2.72233C10.4538 2.40588 10.8251 2.20893 11.2283 2.21717H11.354C11.7038 2.25425 12.0085 2.44461 12.1651 2.72233" fill="#FAC412"/>
<path d="M11.2423 15.739C11.0607 15.744 10.8838 15.7868 10.7247 15.8635L6.56299 17.7735C6.05378 17.987 5.44441 17.8213 5.15891 17.3935C5.05314 17.2187 5.01476 17.0184 5.05033 16.8222L5.88154 12.7624C5.93771 12.4672 5.82538 12.1672 5.58107 11.9595L2.18226 9.06851C1.77882 8.72146 1.77133 8.15185 2.16635 7.79656C2.17196 7.79161 2.17664 7.78749 2.18226 7.78337C2.34326 7.64323 2.55106 7.55091 2.77478 7.52206L7.46722 6.91535C7.80701 6.87743 8.10187 6.69113 8.25163 6.42074L10.2913 2.68074C10.4851 2.37903 10.8567 2.19932 11.2498 2.21828C11.2423 2.46311 11.2423 15.5725 11.2423 15.739" fill="#FAC412"/>
</svg>
