<svg width="22" height="23" viewBox="0 0 22 23" fill="none" xmlns="http://www.w3.org/2000/svg">
<g opacity="0.9">
<path d="M11.5748 3.45172V2.49289C11.5748 2.33081 11.5104 2.17537 11.3958 2.06077C11.2812 1.94616 11.1257 1.88177 10.9637 1.88177C10.8016 1.88177 10.6462 1.94616 10.5315 2.06077C10.4169 2.17537 10.3526 2.33081 10.3526 2.49289V3.45722C5.55045 3.79089 1.74445 7.8013 1.74445 12.6868C1.74445 17.7893 5.89664 21.9415 11 21.9415C16.1034 21.9415 20.2556 17.7893 20.2556 12.6868C20.2556 7.77686 16.4114 3.74964 11.5748 3.45172ZM11 20.7193C6.57039 20.7193 2.96667 17.1156 2.96667 12.6868C2.96667 8.2575 6.57039 4.65408 11 4.65408C15.4297 4.65408 19.0334 8.2575 19.0334 12.6868C19.0334 17.1156 15.4297 20.7193 11 20.7193Z" fill="#363853"/>
<path d="M7.86293 18.2332C5.86796 17.1018 4.62863 14.976 4.62863 12.6865C4.62863 12.5172 4.49204 12.3809 4.32307 12.3809C4.1541 12.3809 4.01752 12.5172 4.01752 12.6865C4.01752 15.1957 5.37571 17.525 7.56166 18.7652C7.6322 18.8052 7.71572 18.8155 7.79386 18.7938C7.87199 18.7722 7.93833 18.7204 7.97828 18.6499C8.01823 18.5793 8.02852 18.4958 8.00689 18.4177C7.98526 18.3395 7.93348 18.2732 7.86293 18.2332Z" fill="#363853"/>
<path d="M9.52923 19.0715C9.41091 19.0406 9.29343 19.0066 9.17693 18.9694C9.10021 18.9464 9.01754 18.9545 8.94672 18.9919C8.87589 19.0292 8.82257 19.0929 8.79822 19.1692C8.77387 19.2455 8.78044 19.3283 8.81653 19.3998C8.85261 19.4713 8.91531 19.5258 8.99115 19.5515C9.11826 19.5924 9.24598 19.6291 9.37646 19.6624C9.4549 19.6826 9.53817 19.6709 9.60796 19.6298C9.67775 19.5886 9.72835 19.5214 9.74862 19.443C9.75868 19.4042 9.76098 19.3638 9.75539 19.3241C9.7498 19.2844 9.73643 19.2462 9.71605 19.2117C9.69567 19.1772 9.66868 19.147 9.63662 19.123C9.60456 19.0989 9.56807 19.0814 9.52923 19.0715Z" fill="#363853"/>
<path d="M18.8854 6.63955C19.0002 6.75398 19.1557 6.81813 19.3177 6.8179C19.4798 6.81767 19.6351 6.75308 19.7495 6.63833C19.864 6.52358 19.9281 6.36807 19.9279 6.20602C19.9277 6.04397 19.8631 5.88864 19.7483 5.77422L18.1616 4.19144C18.1048 4.13472 18.0374 4.08975 17.9632 4.05911C17.889 4.02847 17.8095 4.01276 17.7293 4.01287C17.649 4.01298 17.5695 4.02892 17.4955 4.05977C17.4214 4.09062 17.3541 4.13578 17.2975 4.19266C17.1831 4.30746 17.119 4.46295 17.1193 4.62497C17.1195 4.78699 17.184 4.94229 17.2987 5.05677L18.8854 6.63955Z" fill="#363853"/>
<path d="M11.5746 12.5729V7.68732C11.5746 7.52524 11.5102 7.36981 11.3956 7.2552C11.281 7.14059 11.1255 7.07621 10.9635 7.07621C10.8014 7.07621 10.646 7.14059 10.5313 7.2552C10.4167 7.36981 10.3524 7.52524 10.3524 7.68732V12.8369C10.3524 13.0052 10.4401 13.1656 10.5623 13.2808L12.3507 14.9522C12.4689 15.0634 12.6196 15.119 12.7702 15.119C12.8521 15.1192 12.933 15.1021 13.0079 15.0691C13.0828 15.0361 13.1499 14.9877 13.205 14.9272C13.4375 14.6815 13.4168 14.295 13.1714 14.0634L11.5746 12.5729Z" fill="#363853"/>
</g>
</svg>
