<svg width="40" height="35" viewBox="0 0 40 35" fill="none" xmlns="http://www.w3.org/2000/svg">
<g clip-path="url(#clip0_115_3913)">
<path d="M31.726 13.4901L32.7211 12.4941C33.0088 12.2063 33.1673 11.8234 33.1673 11.4163C33.1673 11.0092 33.0088 10.6263 32.7211 10.3385L31.5814 9.19767C31.2938 8.9098 30.9113 8.75122 30.5046 8.75122C30.0977 8.75122 29.7153 8.9098 29.4277 9.19767L28.4326 10.1937C27.1191 9.28825 25.6288 8.6226 24.0246 8.26048V6.78833H24.6301C25.4499 6.78833 26.117 6.12068 26.117 5.3001V3.22969C26.117 2.40904 25.4499 1.74139 24.6301 1.74139H17.7845C16.9647 1.74139 16.2976 2.40904 16.2976 3.22969V5.30003C16.2976 6.12061 16.9647 6.78826 17.7845 6.78826H18.39V8.26453C16.7931 8.62764 15.3094 9.29177 14.0012 10.1936L13.0061 9.19761C12.7185 8.90974 12.336 8.75116 11.9293 8.75116C11.5225 8.75116 11.14 8.90974 10.8524 9.19761L9.71265 10.3384C9.11891 10.9327 9.11891 11.8997 9.71265 12.4941L9.88907 12.6706H5.18614C4.81977 12.6706 4.52267 12.9679 4.52267 13.3347C4.52267 13.7015 4.81977 13.9988 5.18614 13.9988H10.3752C9.88084 14.7957 9.47155 15.6506 9.16045 16.5512H0.663469C0.297101 16.5512 0 16.8485 0 17.2153C0 17.582 0.297101 17.8793 0.663469 17.8793H8.78114C8.59398 18.703 8.48663 19.5566 8.46765 20.4318H4.2462C3.87983 20.4318 3.58273 20.7291 3.58273 21.0959C3.58273 21.4626 3.87983 21.7599 4.2462 21.7599H8.50733C8.57905 22.6387 8.7402 23.4925 8.98144 24.3124H3.31734C2.95098 24.3124 2.65387 24.6097 2.65387 24.9764C2.65387 25.3432 2.95098 25.6405 3.31734 25.6405H9.45337C11.3836 30.2389 15.9294 33.4764 21.2169 33.4764C28.2488 33.4764 33.9697 27.7504 33.9697 20.7122C33.9697 18.0335 33.1403 15.5453 31.726 13.4901ZM30.366 10.1368C30.4134 10.0893 30.4675 10.0793 30.5046 10.0793C30.5416 10.0793 30.5957 10.0893 30.6432 10.1368L31.7829 11.2776C31.8304 11.3251 31.8403 11.3792 31.8403 11.4163C31.8403 11.4534 31.8304 11.5075 31.7829 11.555L30.9106 12.4281C30.4759 11.9193 30.0021 11.445 29.4937 11.0099L30.366 10.1368ZM17.6246 5.3001V3.22969C17.6246 3.14137 17.6964 3.06952 17.7845 3.06952H24.6301C24.7183 3.06952 24.79 3.14137 24.79 3.22969V5.30003C24.79 5.38835 24.7183 5.46014 24.6301 5.46014H23.3611H19.0534H17.7845C17.6964 5.4602 17.6246 5.38835 17.6246 5.3001ZM19.7169 6.78833H22.6977V8.03457C22.2117 7.97806 21.7178 7.94804 21.2169 7.94804C20.7094 7.94804 20.2091 7.97879 19.717 8.03676L19.7169 6.78833ZM10.6509 11.2775L11.7906 10.1367C11.8381 10.0892 11.8921 10.0793 11.9292 10.0793C11.9663 10.0793 12.0204 10.0892 12.0678 10.1367L12.9401 11.0098C12.4317 11.4449 11.9579 11.9192 11.5232 12.428L10.6509 11.555C10.5744 11.4785 10.5744 11.354 10.6509 11.2775ZM21.2169 32.1482C14.9166 32.1482 9.79101 27.018 9.79101 20.7122C9.79101 14.4063 14.9166 9.2761 21.2169 9.2761C27.5171 9.2761 32.6427 14.4063 32.6427 20.7122C32.6427 27.018 27.5171 32.1482 21.2169 32.1482Z" fill="url(#paint0_linear_115_3913)"/>
<path d="M25.5959 15.39L22.4597 18.5291C22.0929 18.3191 21.6688 18.1984 21.2168 18.1984C19.832 18.1984 18.7053 19.326 18.7053 20.7122C18.7053 22.0983 19.832 23.2259 21.2168 23.2259C22.6017 23.2259 23.7283 22.0983 23.7283 20.7122C23.7283 20.2598 23.6077 19.8353 23.3979 19.4683L26.5342 16.3292C26.7933 16.0699 26.7933 15.6494 26.5342 15.39C26.2751 15.1307 25.8551 15.1307 25.5959 15.39ZM21.2168 21.8979C20.5637 21.8979 20.0323 21.366 20.0323 20.7122C20.0323 20.0585 20.5637 19.5266 21.2168 19.5266C21.87 19.5266 22.4014 20.0585 22.4014 20.7122C22.4014 21.366 21.87 21.8979 21.2168 21.8979Z" fill="url(#paint1_linear_115_3913)"/>
<path d="M21.2171 12.1025C21.3916 12.1025 21.5628 12.0315 21.6861 11.908C21.8095 11.7845 21.8806 11.6131 21.8806 11.4385C21.8806 11.2638 21.8096 11.0925 21.6861 10.969C21.5628 10.8455 21.3916 10.7744 21.2171 10.7744C21.0426 10.7744 20.8715 10.8455 20.748 10.969C20.6246 11.0925 20.5536 11.2638 20.5536 11.4385C20.5536 11.6138 20.6246 11.7845 20.748 11.908C20.8715 12.0315 21.0426 12.1025 21.2171 12.1025Z" fill="url(#paint2_linear_115_3913)"/>
<path d="M21.2171 29.3217C21.0426 29.3217 20.8715 29.3927 20.748 29.5162C20.6246 29.6397 20.5536 29.8111 20.5536 29.9857C20.5536 30.161 20.6246 30.3317 20.748 30.4552C20.8715 30.5794 21.0426 30.6498 21.2171 30.6498C21.3916 30.6498 21.5628 30.5794 21.6861 30.4552C21.8095 30.3317 21.8806 30.1604 21.8806 29.9857C21.8806 29.8111 21.8096 29.6397 21.6861 29.5162C21.5628 29.3927 21.3916 29.3217 21.2171 29.3217Z" fill="url(#paint3_linear_115_3913)"/>
<path d="M14.6653 13.4904C14.4908 13.4904 14.3197 13.5614 14.1963 13.6849C14.0729 13.8084 14.0019 13.9798 14.0019 14.1544C14.0019 14.3297 14.0728 14.5004 14.1963 14.6246C14.3197 14.7481 14.4908 14.8185 14.6653 14.8185C14.8398 14.8185 15.011 14.7481 15.1343 14.6246C15.2577 14.5004 15.3288 14.3297 15.3288 14.1544C15.3288 13.9798 15.2578 13.8091 15.1343 13.6849C15.011 13.5614 14.8398 13.4904 14.6653 13.4904Z" fill="url(#paint4_linear_115_3913)"/>
<path d="M27.7689 26.6056C27.5937 26.6056 27.4232 26.6766 27.2991 26.8002C27.1757 26.9237 27.1054 27.095 27.1054 27.2697C27.1054 27.4443 27.1757 27.6156 27.2991 27.7391C27.4232 27.8627 27.5937 27.9337 27.7689 27.9337C27.9434 27.9337 28.1145 27.8627 28.2379 27.7391C28.3613 27.6156 28.4323 27.4443 28.4323 27.2697C28.4323 27.095 28.3614 26.9237 28.2379 26.8002C28.1145 26.6766 27.9434 26.6056 27.7689 26.6056Z" fill="url(#paint5_linear_115_3913)"/>
<path d="M14.6653 26.6056C14.4908 26.6056 14.3197 26.6766 14.1963 26.8002C14.0729 26.9237 14.0019 27.095 14.0019 27.2697C14.0019 27.4443 14.0728 27.6156 14.1963 27.7391C14.3197 27.8627 14.4908 27.9337 14.6653 27.9337C14.8398 27.9337 15.011 27.8627 15.1343 27.7391C15.2577 27.6156 15.3288 27.4443 15.3288 27.2697C15.3288 27.095 15.2578 26.9237 15.1343 26.8002C15.011 26.6766 14.8398 26.6056 14.6653 26.6056Z" fill="url(#paint6_linear_115_3913)"/>
<path d="M11.9518 20.048C11.7766 20.048 11.6061 20.119 11.4827 20.2425C11.3587 20.3661 11.2883 20.5374 11.2883 20.712C11.2883 20.8867 11.3587 21.058 11.4827 21.1815C11.6061 21.3057 11.7767 21.3761 11.9518 21.3761C12.1263 21.3761 12.2975 21.3057 12.4209 21.1815C12.5442 21.058 12.6153 20.8867 12.6153 20.712C12.6153 20.5374 12.5443 20.3661 12.4209 20.2425C12.2975 20.119 12.1263 20.048 11.9518 20.048Z" fill="url(#paint7_linear_115_3913)"/>
<path d="M30.9514 20.2425C30.828 20.119 30.6569 20.048 30.4824 20.048C30.3072 20.048 30.1367 20.119 30.0134 20.2425C29.89 20.3661 29.8189 20.5374 29.8189 20.712C29.8189 20.8873 29.8899 21.058 30.0134 21.1815C30.1367 21.305 30.3079 21.3761 30.4824 21.3761C30.6569 21.3761 30.828 21.305 30.9514 21.1815C31.0749 21.058 31.1458 20.8867 31.1458 20.712C31.1458 20.5374 31.0749 20.3661 30.9514 20.2425Z" fill="url(#paint8_linear_115_3913)"/>
<path d="M0.66347 24.3126C0.488977 24.3126 0.317802 24.383 0.194397 24.5065C0.0709913 24.6307 0 24.8014 0 24.9767C0 25.1513 0.070925 25.322 0.194397 25.4462C0.317802 25.5697 0.488977 25.6407 0.66347 25.6407C0.837963 25.6407 1.00914 25.5697 1.13248 25.4462C1.25588 25.3227 1.32694 25.1513 1.32694 24.9767C1.32694 24.8014 1.25595 24.63 1.13248 24.5065C1.00914 24.383 0.837963 24.3126 0.66347 24.3126Z" fill="url(#paint9_linear_115_3913)"/>
<path d="M30.2872 18.6959C30.6383 18.5911 30.8382 18.2213 30.7335 17.8698C30.2645 16.2945 29.3988 14.8449 28.2301 13.6776C27.0612 12.5102 25.6107 11.6468 24.0355 11.1809C23.6842 11.0769 23.3151 11.2778 23.2112 11.6294C23.1073 11.9811 23.308 12.3505 23.6595 12.4545C26.4589 13.2826 28.6281 15.4489 29.4619 18.2491C29.5476 18.5373 29.8116 18.7236 30.0974 18.7236C30.1601 18.7237 30.2239 18.7147 30.2872 18.6959Z" fill="url(#paint10_linear_115_3913)"/>
</g>
<ellipse opacity="0.35" cx="26.9938" cy="14.1089" rx="13.0062" ry="13.5" fill="url(#paint11_linear_115_3913)"/>
<defs>
<linearGradient id="paint0_linear_115_3913" x1="-1.82123e-07" y1="16.5511" x2="33.1554" y2="16.7094" gradientUnits="userSpaceOnUse">
<stop stop-color="#FF7D3D"/>
<stop offset="1" stop-color="#F99462" stop-opacity="0.71"/>
</linearGradient>
<linearGradient id="paint1_linear_115_3913" x1="18.7053" y1="18.943" x2="26.5362" y2="18.9779" gradientUnits="userSpaceOnUse">
<stop stop-color="#FF7D3D"/>
<stop offset="1" stop-color="#F99462" stop-opacity="0.71"/>
</linearGradient>
<linearGradient id="paint2_linear_115_3913" x1="20.5536" y1="11.3942" x2="21.8488" y2="11.4" gradientUnits="userSpaceOnUse">
<stop stop-color="#FF7D3D"/>
<stop offset="1" stop-color="#F99462" stop-opacity="0.71"/>
</linearGradient>
<linearGradient id="paint3_linear_115_3913" x1="20.5536" y1="29.9414" x2="21.8488" y2="29.9472" gradientUnits="userSpaceOnUse">
<stop stop-color="#FF7D3D"/>
<stop offset="1" stop-color="#F99462" stop-opacity="0.71"/>
</linearGradient>
<linearGradient id="paint4_linear_115_3913" x1="14.0019" y1="14.1101" x2="15.297" y2="14.1159" gradientUnits="userSpaceOnUse">
<stop stop-color="#FF7D3D"/>
<stop offset="1" stop-color="#F99462" stop-opacity="0.71"/>
</linearGradient>
<linearGradient id="paint5_linear_115_3913" x1="27.1054" y1="27.2254" x2="28.4005" y2="27.2312" gradientUnits="userSpaceOnUse">
<stop stop-color="#FF7D3D"/>
<stop offset="1" stop-color="#F99462" stop-opacity="0.71"/>
</linearGradient>
<linearGradient id="paint6_linear_115_3913" x1="14.0019" y1="27.2254" x2="15.297" y2="27.2312" gradientUnits="userSpaceOnUse">
<stop stop-color="#FF7D3D"/>
<stop offset="1" stop-color="#F99462" stop-opacity="0.71"/>
</linearGradient>
<linearGradient id="paint7_linear_115_3913" x1="11.2883" y1="20.6678" x2="12.5835" y2="20.6735" gradientUnits="userSpaceOnUse">
<stop stop-color="#FF7D3D"/>
<stop offset="1" stop-color="#F99462" stop-opacity="0.71"/>
</linearGradient>
<linearGradient id="paint8_linear_115_3913" x1="29.8189" y1="20.6678" x2="31.114" y2="20.6735" gradientUnits="userSpaceOnUse">
<stop stop-color="#FF7D3D"/>
<stop offset="1" stop-color="#F99462" stop-opacity="0.71"/>
</linearGradient>
<linearGradient id="paint9_linear_115_3913" x1="-7.11418e-09" y1="24.9324" x2="1.29514" y2="24.9382" gradientUnits="userSpaceOnUse">
<stop stop-color="#FF7D3D"/>
<stop offset="1" stop-color="#F99462" stop-opacity="0.71"/>
</linearGradient>
<linearGradient id="paint10_linear_115_3913" x1="23.1838" y1="14.6862" x2="30.5797" y2="14.7192" gradientUnits="userSpaceOnUse">
<stop stop-color="#FF7D3D"/>
<stop offset="1" stop-color="#F99462" stop-opacity="0.71"/>
</linearGradient>
<linearGradient id="paint11_linear_115_3913" x1="13.9875" y1="13.2089" x2="39.3766" y2="13.318" gradientUnits="userSpaceOnUse">
<stop stop-color="#F99462"/>
<stop offset="1" stop-color="#F99462" stop-opacity="0.65"/>
</linearGradient>
<clipPath id="clip0_115_3913">
<rect width="33.9697" height="34" fill="white" transform="translate(0 0.608887)"/>
</clipPath>
</defs>
</svg>
